Patient4_TMGait_0pt8_01_right_46_EMG.mot
version=1
nRows=26
nColumns=33
inDegrees=no
endheader
time	1LAddLong	2LGlutMax	3LGlutMed	4LIliopsoas	5LSemiMemb	6LBicFemLong	7LRecFem	8LVastMed	9LVastLat	10LGasMed	11LTibAnt	12lTibPost	13LPeroneusLong	14LSol	15LExtDigLong	16LFlexDigLong	17RAddLong	18RGlutMax	19RGlutMed	20RIliopsoas	21RSemiMemb	22RBicFemLong	23RRecFem	24RVastMed	25RVastLat	26RGasMed	27RTibAnt	28RTibPost	29RPeroneusLong	30RSol	31RExtDigLong	32RFlexDigLong
52.96	0.00885	0.017395	0.086823	0.006256	0.021973	0.039825	0.12924	0.009308	0.004272	-0.058594	-0.17242	0.037231	0.31555	0.007019	0.030212	-0.007629	-0.035553	0.020905	0.10391	-0.015259	0.010681	0.11765	0.045776	0.058136	0.004425	0.054932	0.45868	-0.00412	-0.07431	0.062714	-0.003815	0.01358
52.961	0.016022	0.020752	-0.023651	0.013123	0.019989	0.049286	-0.013123	0.014496	0.047607	-0.012817	-0.21133	0.028076	-0.029449	-0.16235	0.13245	-0.021667	-0.038757	0.052948	0.29495	0.080719	0.00473	0.21301	0.055237	0.000153	0.016174	0.035706	0.23224	-0.00351	0.3685	0.057068	-0.003967	0.025635
52.962	0.008087	0.034637	0.083313	-0.011444	0.012207	0.017395	0.075531	0.005493	0.065308	0.050201	-0.093384	0.021973	-0.1564	-0.21469	0.28839	0.007324	-0.042725	0.025482	0.46295	0.057678	-0.002136	0.09491	0.083618	-0.021973	0.011139	0.004883	0.22858	-0.009308	0.38147	-0.000916	-0.004272	0.032349
52.963	0.027466	0.03479	0.070496	-0.00824	0.01236	0.02533	0.15076	-0.003204	0.071564	0.039978	0.003357	0.029907	0.027771	-0.18112	0.31632	0.00473	-0.03952	-0.095673	0.31006	0.001221	0.055084	0.026703	0.063934	-0.049133	0.012817	-0.009918	0.082245	-0.002441	-0.23544	-0.018158	-0.00412	0.041656
52.964	-0.000458	0.11383	0.070343	0.002441	0.022736	0.020752	0.11047	-0.005493	0.10681	0.028534	0.018616	0.028534	0.001221	-0.13443	0.20966	0.003662	-0.002747	0.016632	-0.11444	-0.081482	0.021973	-0.028381	0.061646	-0.066376	0.007935	-0.009003	0.11719	0.000153	-0.60883	-0.073242	-0.004883	0.04776
52.965	0.022736	0.11169	-0.11093	0.016174	0.013733	-0.014648	0.14801	-0.004272	0.054474	0.049286	0.03006	0.03067	-0.072937	-0.12466	0.043488	0.003815	0.044403	0.062561	-0.12878	-0.043945	0.01709	-0.078735	0.053558	-0.065002	0.014038	0.033417	0.025787	-0.000763	-0.47241	-0.023956	-0.004578	0.050964
52.966	0.002899	0.10635	-0.2092	0.053864	0.016785	-0.002441	0.15076	-0.00473	0.042114	0.018768	0.042267	0.038452	0.072021	-0.095825	0.074615	-0.001526	0.070648	0.12039	-0.11185	0.033569	-0.037537	-0.13306	0.030823	0.010834	0.023651	0.050507	-0.026093	-0.001221	-0.38971	0.074463	0.002136	0.052643
52.967	0.000763	0.11627	-0.12222	0.029602	0.016937	0.001984	0.13473	0.005188	0.022278	0.042877	0.066376	0.036163	0.065918	-0.052032	0.026703	-0.011444	0.088501	0.11658	-0.17044	-0.015259	-0.13397	-0.16098	0.040894	-0.005188	0.040741	0.018005	0.00946	-0.00885	-0.027924	0.072937	-0.002441	0.046844
52.968	0.002747	0.1152	-0.010071	-0.002899	0.022583	0.005798	0.13763	0.00351	0.016785	0.05249	0.10895	0.040588	0.19455	-0.045624	0.043945	-0.012207	0.037994	0.071106	-0.23285	-0.10483	0.045929	-0.095825	0.00824	-0.003662	0.023041	-0.000153	0.040588	-0.005646	0.23209	-0.001831	-0.001984	0.044708
52.969	0.009308	0.1474	0.12131	-0.010529	0.019531	0.003204	0.15137	0.005341	0.032349	0.045013	0.051422	0.037079	-0.011749	0.027008	0.048676	-0.004425	-0.032654	0.080414	-0.25101	-0.19348	0.055389	-0.02533	0.009613	0.020294	0.02121	-0.00885	0.075378	-0.002899	0.21393	-0.053253	-0.00473	0.015106
52.97	0.001831	0.15106	0.042877	0.007629	0.020294	0.017548	0.20615	-0.004272	0.066528	0.032806	-0.12314	0.048523	0.18249	0.068054	0.039978	-0.033112	-0.048676	0.059662	-0.20386	-0.10178	0.014648	0.17227	0.028687	0.047455	-0.00351	-0.012207	0.11276	-0.000153	0.069885	-0.037231	0.008087	-0.002594
52.971	-0.002136	0.13367	0.005341	0.005493	0.016937	0.028229	0.22919	-0.003662	0.018768	0.022736	-0.076447	0.046844	0.56778	0.076141	0.012512	-0.022583	-0.038757	-0.002594	-0.23285	0.062714	-0.023193	0.18234	-0.003662	0.068512	0.005188	-0.012054	0.18509	-0.002594	0.014954	-0.018616	0.000763	-0.015411
52.972	0.00351	0.14038	-0.075684	-0.007477	0.014954	0.002289	0.19562	-0.003052	0.007019	-0.001221	-0.024261	0.041351	-0.1059	0.13138	0.12634	-0.005188	-0.034485	0.008545	-0.16739	0.15182	-0.054626	0.27893	-0.003052	0.089874	0.032806	-0.015869	0.12909	-0.001831	0.036774	0.009766	0.00061	-0.010071
52.973	0.004272	0.14069	-0.069733	0.006866	0.015869	-0.020142	0.15152	0.016785	-0.012054	-0.05188	0.021057	0.037079	-0.096436	0.18707	0.2359	-0.001373	-0.007782	0.003815	-0.13901	0.23544	-0.076904	0.22934	-0.019073	0.092926	0.027313	-0.011597	-0.058289	-0.002136	0.058441	0.012817	-0.004883	-0.014191
52.974	0.002136	0.12528	0.098114	0.003967	0.023041	-0.003357	0.20538	0.004883	-0.001984	-0.032043	-0.016632	0.022278	-0.44113	0.085754	0.009155	0.002594	0.019073	0.013733	-0.13947	0.24765	-0.077515	0.089111	-0.009003	0.028687	0.003967	-0.009613	-0.20355	-0.000305	0.044403	-0.019073	0.001068	-0.007477
52.975	0.005035	0.090332	0.13809	0.005646	0.014038	-0.016632	0.17731	0.010986	-0.034332	0.021057	-0.10056	0.028687	-0.24826	0.13825	-0.094147	-0.001678	0.033569	-0.030365	-0.20767	0.041351	-0.013428	0.081024	-0.007019	0.014954	0.026703	-0.011902	-0.20935	-0.001984	0.056458	-0.032806	0.001526	-0.011597
52.976	-0.000916	0.056458	-0.019531	0.042114	0.008087	-0.02121	0.19272	0.010071	-0.034027	0.025482	-0.10223	0.02594	-0.15671	0.065613	-0.14832	-0.005035	-0.012665	-0.068817	-0.32425	-0.045624	-0.001526	0.14816	-0.080109	0.081177	0.038147	-0.013123	-0.1181	-0.001221	0.064392	-0.053406	0.000916	-0.005188
52.977	-0.007935	0.13214	-0.052185	0.038605	0.016632	-0.035553	0.26779	0.006104	0.062408	0.028076	-0.029907	0.023499	-0.26566	-0.09491	-0.037994	0.00351	-0.033417	-0.033569	-0.3714	0.001678	-0.031738	0.13275	-0.080414	0.046692	0.036926	-0.009918	-0.17624	0.001831	0.091248	-0.096436	-0.002747	0.002136
52.978	-0.005188	0.14023	0.061493	-0.007019	0.020142	-0.030823	0.24918	0.006561	0.054321	0.00946	0.16663	0.031586	0.020905	-0.14114	0.15381	0.002594	-0.021362	-0.012512	-0.22476	0.11856	0.063477	0.13092	-0.064545	0.099335	0.034637	-0.013733	-0.16007	-0.001373	0.029297	-0.11566	-0.001526	-0.004578
52.979	-0.005035	0.15442	0.13825	-0.017395	0.020752	0.010834	0.22125	-0.000305	0.079651	-0.016022	0.16419	0.023193	-0.04303	-0.168	-0.049133	-0.002136	-0.015259	0.016174	-0.16068	0.073242	0.033569	0.13733	-0.054169	0.027008	0.023041	-0.018463	0.25024	-0.005646	-0.13046	-0.080566	-0.001678	-0.003662
52.98	0.001984	0.13062	0.19363	-0.032654	0.024872	0.005188	0.20844	-0.011902	0.087891	-0.041962	-0.001526	0.01297	-0.05249	-0.063934	-0.049133	-0.002747	-0.016785	0.058746	-0.40482	0.023499	-0.034943	0.036774	0.036316	-0.019073	0.010376	-0.02182	0.48935	-0.005341	-0.26367	-0.016022	-0.002899	-0.002136
52.981	-0.00351	0.049133	0.094147	-0.014343	0.018311	0.042267	0.24674	0.000153	-0.03067	-0.084534	-0.17929	0.007477	0.019073	0.079956	-0.1004	-0.007324	-0.007629	-0.003204	-0.47562	-0.028992	-0.1355	0.072784	0.082092	-0.046387	0.024872	-0.02182	0.58411	-0.012512	-0.15366	-0.044403	-0.001068	-0.009308
52.982	0.000305	0.029755	0.022278	0.004883	0.023651	0.066223	0.18707	0.011444	-0.047302	-0.095062	-0.159	0.003052	-0.056763	0.002747	-0.22049	-0.007019	0.028992	-0.016785	-0.4895	-0.042114	-0.052338	0.029602	0.091553	-0.065002	0.000305	-0.024414	0.57846	-0.01297	-0.069427	-0.065613	-0.006104	-0.008545
52.983	-0.006256	0.02121	-0.028992	0.013428	0.046844	0.096741	0.14343	0.001984	0.018158	-0.063629	-0.006866	0.003967	-0.1828	0.074768	0.30395	-0.006866	0.033112	-0.07843	-0.19455	-0.016327	-0.038757	0.002899	0.087891	-0.025635	-0.002899	-0.027924	0.55832	-0.023193	0.12405	-0.049438	-0.003815	-0.005951
52.984	0.015717	0.032959	-0.060272	-0.003967	0.036774	0.050812	0.12894	-0.010681	0.10712	-0.12283	0.032349	0.001678	-0.042725	0.063934	-0.027618	0.008545	-0.00824	-0.014343	0.35461	-0.084229	0.09903	-0.020142	0.021667	-0.029602	0.018005	-0.027466	0.24674	-0.035706	0.16754	-0.045319	-0.002136	-0.013275
52.985	0.006714	0.014191	-0.00061	-0.005951	0.020294	0.023804	0.24551	-0.011902	0.028229	-0.087128	0.063324	-0.007172	0.033112	-0.10559	-0.025635	0.020294	-0.056305	-0.011139	0.69687	-0.16861	0.070648	0.00885	-0.011749	0.014648	0.032654	-0.02121	0.016785	-0.034485	0.085297	-0.071869	-0.004883	-0.010376
